<?xml version="1.0" standalone="no"?>
<!DOCTYPE svg PUBLIC "-//W3C//DTD SVG 20010904//EN"
 "http://www.w3.org/TR/2001/REC-SVG-20010904/DTD/svg10.dtd">
<svg version="1.0" xmlns="http://www.w3.org/2000/svg"
 width="354.000000pt" height="354.000000pt" viewBox="0 0 354.000000 354.000000"
 preserveAspectRatio="xMidYMid meet">
<metadata>
Created by potrace 1.14, written by Peter Selinger 2001-2017
</metadata>
<g transform="translate(0.000000,354.000000) scale(0.100000,-0.100000)"
fill="#000000" stroke="none">
<path d="M2220 2641 c-55 -17 -97 -46 -166 -117 -225 -227 -493 -722 -781
-1442 -113 -283 -126 -335 -104 -420 21 -78 110 -151 185 -152 16 0 44 9 62
21 60 37 92 90 143 241 126 368 265 728 303 780 11 16 24 28 30 28 6 0 37 -16
69 -36 164 -99 315 -107 421 -23 75 59 110 30 127 -104 38 -299 54 -426 66
-539 27 -238 46 -370 57 -388 29 -46 116 -69 187 -50 51 13 121 75 158 137 28
48 28 55 -14 278 -148 802 -326 1385 -501 1641 -46 69 -117 131 -164 145 -37
10 -43 10 -78 0z m78 -90 c184 -95 381 -592 531 -1336 17 -82 44 -215 60 -295
16 -80 33 -183 37 -230 l6 -85 -33 -44 c-19 -24 -51 -53 -72 -64 -33 -17 -44
-18 -78 -8 -21 7 -46 23 -55 36 -17 25 -19 44 -55 365 -47 434 -131 914 -187
1080 -37 109 -56 147 -96 188 -57 62 -125 79 -185 47 -79 -40 -185 -203 -317
-485 -112 -239 -310 -745 -389 -990 -28 -89 -46 -120 -77 -136 -26 -13 -32
-13 -72 5 -93 40 -106 112 -51 263 49 134 187 481 232 583 104 237 250 539
296 611 13 22 41 71 62 109 55 103 140 218 220 299 104 105 151 124 223 87z
m1 -436 c16 -14 41 -49 55 -78 31 -67 68 -210 64 -251 l-3 -31 -80 -8 c-44 -4
-127 -6 -185 -4 -171 5 -201 36 -144 150 54 106 133 205 189 235 33 19 72 13
104 -13z m100 -435 c12 -6 21 -16 21 -23 0 -20 -50 -62 -110 -93 -45 -23 -68
-28 -125 -29 -61 0 -78 5 -133 34 -81 44 -116 84 -101 113 11 21 16 21 219 15
123 -3 217 -10 229 -17z"/>
</g>
</svg>
